<svg id="Capa_2" xmlns="http://www.w3.org/2000/svg" viewBox="0 0 442.87 225.26">
    <g>
        <path d="M405.31,130.11q-.55-4.92-5.83-4.92c-1.41,0-2.83-.04-4.24,.03-3.61,.2-4.36,1.18-4.19,5.66-.87-.22-1.73-.27-2.4-.65-6.3-3.51-12.56-7.08-18.84-10.62-.19-.11-.4-.18-.93-.4,2.09-.81,3.7-1.35,5.24-2.05,10.12-4.65,16.39-15.8,15.43-27.35-.97-11.67-9.08-21.34-20.16-24.24-5.36-1.4-10.65-.51-15.84,.55-7.57,1.54-15.04,3.55-22.87,5.43-11.91-29.2-32.39-51.02-62.38-63.36C249.26,.37,229.3-2.21,209.23,2.02c-53.13,11.2-82.06,45.58-91.85,98.04-.19-.05-.74-.18-1.36-.34,2.8-3.57,2.19-4.99-2.71-6.73-.32-2.5-.49-5.01-.98-7.45-3.06-15.34-19.27-26.75-36.34-22.65-8.02,1.93-15.93,3.91-23.15,8.1-8.2,4.75-13.92,11.14-14.56,20.97-3.55,.59-5.38,4.38-3.57,7.36,.45,.74,1.8,.9,2.71,1.39,.59,.31,1.47,.61,1.64,1.11,3.53,10.13,11.02,15.88,20.87,19.07,.36,.12,.73,.2,1.01,.28,.73,2.27-.06,3.48-1.98,4.66-15.22,9.36-30.4,18.81-45.52,28.33-3.58,2.25-6.91,4.89-10.31,7.41-4.34,3.22-4.13,6.48,.46,9.34,10.43,6.51,21.98,9.73,33.96,11.77,2.36,.4,4.59,.67,6.86-.51,1.39-.72,4.66,.98,5.11,2.51,.52,1.78,1.7,2.49,3.44,2.65,10.47,.95,20.93,1.96,31.4,2.86,1.57,.13,2.1,.69,2.34,2.23,.81,5.05,2.47,9.75,6.6,13.11,.77,.63,1.93,1.11,2.9,1.1,5.96-.02,11.93-.19,17.89-.32,2.42-.05,4.31-1.26,5.35-3.29,1.7-3.3,3.07-6.77,4.7-10.44,4.88,.29,10.13,.47,15.34,1.01,1.33,.14,2.46,1.59,3.81,2.16,5.24,2.2,7.51,6,8.17,11.74,.55,4.8,2.76,9.41,4.29,14.09,.7,2.15,2.08,3.14,4.54,3.16,14.68,.07,29.36,.28,44.04,.52,2.01,.03,3.25-.3,3.55-2.6,.28-2.15,.99-4.23,1.57-6.56,1.92,.13,3.86,.3,5.8,.37,23.02,.83,45.6-1.74,67.23-9.94,7.12-2.7,13.85-6.58,20.5-10.37,2.76-1.57,5.36-2.38,8.69-2.09,.84,3.36,1.49,6.89,2.61,10.26,1.32,3.99,2.91,7.91,4.64,11.74,1.18,2.61,3.54,4.08,6.38,4.17,8.92,.29,17.89,1.57,26.75-.29,4.26-.89,8.41-2.39,12.54-3.82,.96-.33,1.95-1.34,2.4-2.28,3.16-6.61,5.21-13.56,6.1-20.85,.14-1.16,.4-2.3,.66-3.77,3.17-.45,6.51-.74,9.77-1.41,17.4-3.55,34.96-6.43,51.83-12.18,1.63-.55,3.2-1.27,4.78-1.95,3.17-1.36,3.64-3.07,1.09-5.46-4.11-3.87-8.47-7.48-12.72-11.2-.06-.05-.12-.11-.18-.15-2.47-1.3-2.89-3.02-2.29-5.87,2-9.47-4.22-19.2-13.12-20.83-2.41-.44-4.97-.07-7.62-.07Zm-1.89,8.02l-.06-.11,.08,.07-.1,.03s.08,.02,.08,.01Zm-193.63,54.86c-1.55,.12-3.09,.32-4.64,.34-8.79,.07-17.59,.34-26.37,.08-16.08-.48-32.14-1.24-48.21-1.96-8.7-.39-17.4-.86-26.08-1.45-12.2-.82-24.4-1.74-36.6-2.72-5-.4-9.98-1.02-14.95-1.65-2.11-.27-2.45-1.33-1.14-3.01,.24-.31,.51-.6,.76-.89,13.04-15.29,27.81-28.72,43.61-41.1,10.56-8.28,20.92-16.76,32.78-23.22,4.68-2.55,9.46-3.49,14.66-3.33,14.35,.44,28.7,1.01,43.05,1.15,9.49,.09,18.98-.46,28.48-.73,4.56-.13,4.8-.1,4.18,4.46-1.3,9.62-2.95,19.19-4.34,28.79-1.42,9.84-2.8,19.69-4,29.55-.62,5.12-.8,10.29-1.2,15.69Zm48.15,3.05c-9.45-.48-16.98-.77-24.5-1.27-3.98-.27-7.95-.85-11.91-1.39-1.31-.18-2.54-.48-2.34-2.47,.68-6.94,1.08-13.9,1.8-20.83,.74-7.09,1.51-14.18,2.67-21.21,1.75-10.58,3.94-21.08,5.74-31.65,.37-2.14,1.23-2.84,3.19-2.72,6.42,.39,12.84,.87,19.26,1.13,13.81,.55,27.62,.35,41.38-1.08,2.29-.24,4.19,.25,5.78,1.88,1.15,1.18,2.3,2.36,3.39,3.6,9.56,10.93,19.09,21.87,28.65,32.8,8.43,9.64,16.46,19.57,22.83,30.74,1.74,3.05,1.19,4.57-2.23,4.95-11.21,1.27-22.42,2.48-33.66,3.48-8.2,.73-16.44,1.04-24.65,1.6-12.44,.84-24.87,1.73-35.41,2.46Zm24.85-127.25c3.28-2.02,5.91-4.16,7.23-7.55,.16-.4,1.02-.52,1.57-.77,2.03-.91,2.77-3.81,1.01-5.03-1.98-1.37-1.5-2.99-1.3-4.73,.09-.77,.32-1.55,.28-2.32-.36-6.61-3.3-12.09-9.15-14.89-6.39-3.05-13.22-2.42-19.22,1.65-3.81,2.58-6.69,6.12-7.76,10.92-1.38,0-2.63-.06-3.88,.02-1.25,.07-2.49,.35-3.74,.41-3.23,.16-4.65,1.21-5.07,4.37-.25,1.92-.25,3.95,.1,5.85,1.18,6.41,2.29,7.37,8.57,8.2,.14,.02,.26,.15,.53,.31,.15,2.45,.31,4.99,.48,7.58-1.76,.23-3.23,.42-4.7,.6-4.7,.58-6.92,3.92-5.64,8.55,.21,.75,.5,1.48,.78,2.21,1.22,3.23-.83,10.38-3.58,12.36-.3,.21-.72,.36-1.08,.36-4.29,.02-8.58,.02-13.06,.02,0-1.31,.02-2.4,0-3.48-.1-5.23-1.06-10.24-3.17-15.08-1.32-3.04-3.6-4.62-6.65-5.38-.57-.14-1.15-.28-1.44-.36,1.55-1.84,3.07-3.64,4.7-5.57,1.42,.21,3.2,.47,5.07,.74-.28-2.76-.52-5.07-.77-7.5,2.52-.44,4.86-.85,7.21-1.26,.12-.26,.24-.51,.35-.77-2.03-1.69-4.07-3.38-6.6-5.49,3.92-.94,6.98-1.68,10.54-2.54-3.32-2.23-6.21-4.17-9.12-6.12,2.54-3.69,4.97-7.2,7.71-11.19-5.07-.23-9.41-.43-14.22-.65V16.06c-.28-.11-.56-.22-.83-.32-3.85,4.23-7.7,8.46-11.59,12.74-3.22-3.11-6.21-6-9.19-8.89-.15,.12-.29,.24-.44,.37,.65,3.26,1.3,6.51,1.99,9.99-4.06-.91-7.83-1.75-12.03-2.7,1.88,4.23,3.59,8.06,5.33,11.99h-9.34c1.6,2.19,3.01,4.12,4.65,6.36-3.52,0-6.64-.03-9.76,0-3.73,.05-5.15,1.44-5.18,5.11-.03,3.69,.03,7.38,.03,11.07,0,4.84,.3,5.33,4.75,7.24-.27,.4-.53,.78-.79,1.16-3.96,5.84-7.94,11.67-11.86,17.53-1.68,2.51-2.02,5.22-.86,8.07,.18,.45,.26,.96,.43,1.63-4.13-.18-8.02-.36-11.99-.53-1.18-11.16,.13-21.82,3.58-32.22,5.85-17.63,16.55-32.07,29.83-44.75,7.21-6.88,15.45-12.01,25.3-14.23,7.75-1.74,15.62-1.1,23.45-1.19,14.13-.16,26.68,4.45,37.8,12.86,22.87,17.31,34.06,40.75,35.51,69.11,.15,2.95,.02,5.92,.02,9.3-4.92,0-9.38,.04-13.83-.07-.44-.01-1.1-.93-1.23-1.53-.92-4.2-1.73-8.42-2.56-12.63-.07-.35,.07-.73,.05-1.09-.03-.84,.15-1.8-.19-2.51-1.64-3.46-3.26-6.96-7.04-9.14Zm142.12,87.4c5.89,4.76,11.63,9.19,17.02,15.16-3.99,1.53-7.29,3.2-10.8,4.08-11.98,3.01-24.02,5.79-36.07,8.56-9.4,2.16-18.9,3.65-28.57,3.97-2.04,.07-3.22-.54-4-2.38-.73-1.73-1.65-3.38-2.54-5.03-6.02-11.17-13.94-21.02-21.7-30.98-8.78-11.27-17.37-22.69-28.12-32.22-1.14-1.01-2.24-2.05-3.59-3.28,8.71-.52,17-1.1,25.3-1.47,3.57-.16,6.67-.9,8.5-4.31,16.11,6.41,31.76,13.47,46.06,22.53-.88,4.29-2.31,8.31-2.36,12.35-.06,4.09,1.25,8.2,2.04,12.79-1.74,1.95-6.03-.43-8.14,3.32,1.2,.49,2.34,.95,3.52,1.43,.07,.5,.16,1.08,.26,1.79,1.18-.37,2.2-.69,3.22-1-.02,.26-.04,.52-.06,.79,1.05,.3,2.2,1.03,3.12,.82,1.62-.38,3.13-1.27,4.62-2.07,1.56-.83,2.86-.76,4.29,.4,1.2,.97,2.58,2.04,4.02,2.32,2.49,.49,3.83,2.05,4.63,4.09,.84,2.14,2.29,2.5,4.26,2.2,.77-.12,1.56-.11,2.35-.17,1.98-.14,3.14-1.15,3.54-3.13,.13-.63,.45-1.49,.94-1.74,3.72-1.89,6.27-4.87,8.24-8.8ZM124.46,111.59c-.81,.52-1.29,.86-1.81,1.15-6.23,3.46-12.78,6.44-18.64,10.43-22.1,15.06-40.79,33.8-57.47,54.6-2.29,2.86-4.62,4.19-8.44,3.48-11.85-2.22-23.4-5.18-33.73-11.73-3.56-2.26-3.74-3.93-.35-6.57,3.53-2.74,7.07-5.5,10.84-7.88,15.39-9.7,30.86-19.27,46.33-28.84,.66-.41,1.65-.59,2.43-.48,2.44,.35,4.94,1.73,7.14-1.37-.42,3.53,1.92,3.37,3.85,3.93,2.08,.6,3.67,.45,5.5-1.01,3.97-3.14,8.06-6.07,13.26-7.21,2.49-.55,4.98-2.06,6.98-3.71,2.5-2.07,4.91-3.38,8.21-2.5,.88,.23,1.89,.12,2.81-.02,3.16-.49,6.5-.67,8.23-4.21,1.55,.62,3.05,1.21,4.86,1.93Zm-4.26-16.84c7.46-46.85,42.22-76.38,67.24-84.88-28.53,21.1-44.6,49.52-44.44,86.7-7.47-.59-15.03-1.2-22.8-1.81Zm75.16,8.9c-.22-4.3,.04-4.64,3.92-4.73,7.06-.16,14.12-.29,21.18-.39,13.65-.19,27.3-.36,40.95-.51,4.79-.05,9.57-.01,14.36-.05,1.63-.01,2.07,.47,1.86,2.26-.51,4.3-.64,8.64-.94,13.31-2.62,.19-5.65,.67-8.65,.58-11.36-.33-22.72-1.07-34.08-1.23-11.21-.16-22.43,.18-33.64,.3-1.91,.02-3.82,0-6.22,0,.69-1.55,1.1-2.49,1.52-3.45,5.04,2.59,7.88,2.45,9.92-.32,1.41-1.92,1.24-4.45-.44-6.23-2.25-2.4-5.49-2.29-9.73,.45Zm-86.3-22.81c-1.16,.5-1.99,.95-2.87,1.23-9.39,2.99-18.79,5.96-28.19,8.91-.57,.18-1.2,.18-1.81,.24-.91,.09-1.88-.01-2.72,.28-5.45,1.94-10.86,3.98-16.3,5.95-1.1,.4-1.91,.04-1.89-1.27,.04-3.19-.31-6.45,.26-9.55,2.6-14.22,16.21-24.9,31.94-22.44,10.04,1.57,17,7.4,21.58,16.65ZM276.2,13.64c17.65,4.85,49.05,39.89,53.09,59.38-5.45,2.57-10.54,5.81-14.37,11.13-1.91-29.85-15.19-52.92-38.72-70.51Zm68.85,62.21c4.7-6.93,14.81-10.56,23.24-8.7,10.22,2.26,18.89,11.11,19.68,24.51,.1,1.67-.49,2.06-2.11,1.45-3.73-1.41-7.66-2.36-11.25-4.05-3.28-1.54-7.46-1.88-8.93-5.26-1.41-.11-2.51-.06-3.49-.37-.26-.08-.36-1.34-.19-1.95,.32-1.15,.9-2.22,1.37-3.33-.94,.81-2.01,1.5-2.79,2.44-1.03,1.24-1.86,1.8-3.53,.88-2.39-1.32-4.98-2.27-7.47-3.41-1.47-.67-2.91-1.42-4.54-2.21ZM198.31,6.5c-16.64,9.31-28.39,22.68-37.68,38.21-9.45,15.78-12.68,33.36-12.97,51.59h-2.76c-6.88-28.21,25.17-82.49,53.42-89.8Zm204.01,140.64c.26-3.62,1.55-7.3,5.37-9.54,2.29-1.34,4.76-1.73,7.07,0,3.7,2.78,5.32,8.01,3.95,12.44-1.22,3.95-5.28,6.76-8.92,6.17-4-.65-7.44-4.55-7.47-9.06ZM250.62,4.86c2.02,.53,4.11,.9,6.06,1.62,11.5,4.25,20.98,11.45,29.36,20.27,9.1,9.56,16.04,20.43,20.64,32.82,4.25,11.45,4.12,23.37,4.07,35.3,0,.14-.13,.27-.21,.43h-2.01c1.1-19.85-3.26-38.29-13.83-55.03-10.61-16.8-24.98-29.01-44.08-35.41Zm-38.9-.53c-7.77,1.7-14.76,5.05-21.03,9.88-8.34,6.42-15.3,14.18-21.49,22.62-12.15,16.58-19.25,34.89-18.46,55.78,.05,1.38,.13,2.75,.19,4.07-2.03,.62-2.06-.51-2.07-1.83-.16-11.49,2.15-22.58,5.49-33.48,3.91-12.76,11.24-23.47,19.91-33.46,7.55-8.69,16.01-16.08,26.33-21.29,3.55-1.79,7.2-2.49,11.13-2.28Zm59.51,7.81c.66,.36,1.34,.69,1.97,1.09,19.79,12.73,32.18,30.79,38.16,53.36,2.48,9.37,3.38,18.85,.38,28.51,3.14-35.82-13.1-62.05-40.5-82.96ZM60.35,69.06c.19,.21,.39,.43,.58,.64-5.06,4.69-7.94,10.47-8.96,17.2-.1,.63-.58,1.4-1.12,1.72-2.76,1.66-5.79,2.34-9.53,2.33,3-1.36,6.07-.94,8.25-2.82-.07-.28-.14-.55-.21-.83-2.48,.5-4.96,.99-7.55,1.51,.65-4.64,.75-4.75,4.78-5.88,1.13-.31,2.28-.59,3.37-1.01,.44-.17,.74-.68,1.1-1.04l-.36-.66c-2.13,.52-4.27,1.04-6.4,1.57,.7-5.82,6.58-4.03,9.65-6.32-.08-.24-.16-.48-.24-.72-1.04,.05-2.08,.1-3.12,.16-.07-.16-.14-.33-.2-.49,3.32-1.79,6.64-3.57,9.96-5.36Zm220.37,8.12c4.85,5.77,7.08,11.72,7.06,18.68h-3.34c-1.22-6.12-2.4-12.06-3.72-18.68Zm63.82-6.68c.05,.15,.11,.31,.16,.46-1.74,2.29-3.46,4.6-5.24,6.87-.74,.94-4.82,1.48-5.99,.81,1.08-.61,2.11-1.2,3.15-1.78l-.3-.76c-.7,.11-1.4,.35-2.09,.31-.64-.04-1.26-.37-2.29-.71,4.67-1.92,8.64-3.56,12.61-5.2Zm-226.78,31.56c-1.58,4.21-5.37,6.34-8.25,4.94,.62-1.67,1.13-3.39,1.93-4.96,.32-.62,1.35-1.32,1.97-1.25,1.48,.19,2.9,.81,4.36,1.27ZM213.52,3.09c10.52-1.67,21.01-1.58,29.78,0-3.53,0-8.77,0-14.01,0s-10.52,0-15.77,0Zm-14.21,103.58c.83-1.61,1.15-3.3,2.08-3.78,1.3-.66,4.12,2.02,3.73,3.6-.31,1.26-1.53,2.29-2.35,3.43-1.1-1.04-2.21-2.07-3.46-3.25Zm-83.14,4.24c-3.32,1.13-6.49,1.74-9.89,.81,.97-1.88,2.24-2.61,4.3-2.42,1.63,.14,3.33-.35,5.08-.58,.13,.56,.28,1.22,.51,2.19Zm282.31,44.99c-.26-.36-.53-.72-.79-1.08,.61-.14,1.23-.29,1.84-.43-2.59-1.47-1.65-3.72-2.35-5.08-1.19-2.33,.16-2.78,1.44-3.54,.42-.25,1.36-.19,1.68,.12,.35,.34,.44,1.18,.31,1.72-.07,.3-.82,.45-1.47,.77,.34,1.85,.71,3.8,1.07,5.75,.29,.09,.57,.17,.86,.26l-2.58,1.52Zm-16.34,2.86c1.16-.31,2.43-.29,3.2-.91,2.75-2.22,4.6-.18,6.81,1.06q-5.09,2.32-10.01-.15Zm21.39-28.22c-1.19,.23-2.94,1.04-3.45,.55-.98-.95-1.26-2.62-1.91-4.16q4.05-.44,5.35,3.61Zm-240.39,83.84c-.3,.06-.6,.12-.9,.18-.73-2.48-1.46-4.96-2.2-7.49,3.16-.57,3.23-.48,3.12,1.99-.08,1.77-.02,3.55-.02,5.33Zm247.99-81.03c.07,.23,.15,.47,.22,.7-.62,.27-1.24,.54-1.85,.82-1.57,.73-3.98-1.08-5.14,1.64,.32-1.41,.78-2.69,1.64-3.58,1.83-1.88,3.38,.46,5.13,.41Zm-334.72-6.51c-3.61-.46-4.81-1.34-3.99-3.2,.38-.87,2.22-1.09,3.75-1.75,.11,2.16,.18,3.54,.25,4.95Zm342.64,26.52c-2.17,5.36-8.48,7.47-11.69,3.85,4.92,1.5,8.67-.07,11.69-3.85Zm-203.78-56.51v-9.3c2.31,4.47,2.28,8.91,0,9.3Zm-176.93,2.24c-1.58,.41-2.81,.26-2.53-1.73,.2-1.41-1.14-3.9,2.21-3.69,.11,1.85,.22,3.6,.33,5.41Zm161.14,10.78c-.12,.16-.24,.32-.36,.48-.73-1.11-1.77-2.15-2.07-3.37-.22-.9,.53-2.04,.85-3.07,.13,.09,.26,.17,.39,.26,.4,1.9,.79,3.8,1.19,5.7Zm123.71-15.15l-.97,.38c-.24-.54-.59-1.05-.71-1.62-.27-1.33-.41-2.69-.64-4.04-.07-.42-.27-.82-.41-1.23,.49,.2,1.32,.31,1.41,.63,.54,1.93,.9,3.91,1.33,5.88Zm64.63,40.07c.6,.71,1.46,1.26,1.45,1.8-.02,1.49-.41,2.98-.66,4.46-.27-.01-.53-.02-.8-.03v-6.23Zm-62.58-55.88c-.1-.26-.2-.52-.3-.78,1.35-.65,2.68-1.36,4.06-1.92,.36-.14,.91,.19,1.37,.31-.25,.4-.42,1.03-.77,1.15-1.43,.5-2.91,.84-4.37,1.24Zm-6.4,15.2c-1.25-2.08-2.49-4.16-4.03-6.75,4.04,1.5,3.86,4.29,4.03,6.75ZM62.71,121.78c1.4,.19,2.71,.37,4.14,.56-.07,.94-.12,1.59-.19,2.56-1.4-1.17-4.12,.21-3.95-3.12Zm360.47,24.3c.35,.07,.71,.14,1.06,.21,0,1.17,.08,2.36-.08,3.51-.03,.19-1.14,.22-2.27,.42,.53-1.7,.91-2.92,1.29-4.13ZM113.17,94c1.19,1.12,1.92,1.8,2.64,2.48-.83,.79-1.67,1.57-2.5,2.36-.2-.13-.4-.26-.6-.39,.12-1.2,.25-2.4,.46-4.45Zm280.02,38.21c1.88-.14,3.49-.26,5.29-.39-1.05,2.79-1.81,2.81-5.29,.39Zm-311.58-8.48c-1.42,.97-2.24,1.53-3.23,2.2-.15-1.21-.27-2.18-.49-3.9,1.5,.69,2.42,1.11,3.71,1.71Zm318.51,34.78c.11-.28,.23-.55,.34-.83,.86,.35,1.98,.48,2.5,1.11,.46,.55,.24,1.65,.32,2.51-.23,.05-.47,.1-.7,.15-.82-.98-1.64-1.97-2.46-2.95ZM253.81,65.36c.27-.02,.54-.04,.8-.05v6.78c-.16,0-.32,.01-.48,.02-.11-2.25-.22-4.5-.33-6.74Zm140.54,64.77c.56-1.11,1.04-2.06,1.52-3.02,.41,.45,1.17,.9,1.18,1.36,.01,1.25-.49,2.26-2.69,1.67Z"
              fill="#fff"/>
        <path d="M200.64,34.8c.85,.32,1.7,.93,2.54,.92,3.42-.05,6.66,.45,9.6,2.33-1.17-.78-2.25-1.94-3.53-2.26-2.29-.56-4.71-.61-7.07-.87,1.84-.66,3.78-1.01,5.69-.93,3.92,.15,6.41,2.89,8.99,5.38-1.69-4.34-7.97-7.1-13-5.86-.91,.22-1.8,.5-2.7,.75-.18,.18-.35,.36-.53,.54Z"
              fill="#fff"/>
        <path d="M95.83,138.81c-.42-2.21-1.86-3.85-3.72-4.23-.02,2.62,1.41,4.21,3.75,4.16,0,0-.03,.07-.03,.07Z"
              fill="#fff"/>
        <path d="M91.76,141.72c-.64-1.21-1.22-2.45-1.96-3.59-.17-.26-.92-.13-1.4-.18-.03,.49-.28,1.18-.05,1.43,.94,.99,2.02,1.84,3.05,2.74,.12-.13,.25-.27,.37-.4Z"
              fill="#fff"/>
        <path d="M95.56,131.56c-.42,2.21,.93,3.64,3.69,3.48-1.13-1.52-1.27-3.59-3.66-3.65,0,0-.03,.18-.03,.18Z"
              fill="#fff"/>
        <path d="M268.33,140.75c-.82,.11-1.98,.28-3.14,.44-1.16,.17-2.32,.34-3.75,.54-.48,4.96-.97,9.92-1.45,14.89-.06,.62-.02,1.26-.13,1.88-.39,2.16-.86,4.32,1.82,6.26-3.8-.21-6.89-.38-9.98-.54-.04,.2-.08,.39-.12,.59,.71,.77,1.41,1.54,1.76,1.91-.62,1.31-1.09,2.31-1.89,4,5.25,.23,9.84,.84,14.37,.5,3.48-.26,5.4,1.68,6.77,3.85,1.76,2.78,3.65,4.33,6.98,3.97,1.24-.13,2.51-.04,3.76-.03,2.03,.03,4.28,.45,4.09-2.83-.02-.33,.86-.74,1.35-1.08,1.86-1.29,3.91-2.36,5.53-3.89,1.3-1.22,2.52-1.43,4.02-.95,2.61,.84,5.04,.41,7.22-.77-.69-.94-1.33-1.83-1.98-2.71,.15-.2,.29-.4,.44-.6-1.82-.11-3.64-.22-5.5-.33,2.99-14.88-3.11-24.33-16.56-25.75-.07-.47-.05-1.01-.23-1.48-.31-.86-.58-1.82-1.15-2.49-1.14-1.33-9.5-1.86-10.52-.47-.92,1.26-1.09,3.08-1.72,5.08Zm5.35,26.81l.7,.33v.08s.03-.1,.01-.09c-.33,.07-.65,.15-.98,.22l.09,.05c-.39,.03-.77,.05-1.16,.08h.06c-.48-.56-.95-1.13-1.43-1.69l.02,.19c-.24-.58-.48-1.15-.72-1.73l.06,.06c.19-.09,.37-.19,.56-.28l-.02-.06c.55,.28,1.11,.56,1.66,.84h-.07c.43,.45,.86,.9,1.29,1.36l-.06-.04,.03,.77-.06-.07Zm22.16-6.53c1.41,0,2.02,.41,.96,1.77-.38,.49-.99,1.05-.97,1.57,.09,2.99-1.69,3.24-4.21,2.7-.23,1.22-.44,2.3-.68,3.56-1.45,.83-2.78,3.47-5.24,.78-.5,2.38-1.74,2.81-3.62,1.98-.35-.16-.83-.09-1.24-.05-3.3,.32-4.97-.81-3.6-3.83,3.68,.36,7.46,2.49,10.89-.7,2.7-2.5,5.93-4.48,7.77-7.84-1.57,.12-1.68-.87-1.76-2.1-.14-2.14-.46-4.26-.7-6.39,2.3-.22,3.48,1.23,4.05,3.48-2.56,1.11-2.08,3.1-1.66,5.08Zm-14.23,5.58c-5.07,.04-9.24-3.55-9.32-8.02-.09-5.54,4.59-10.32,10.09-10.28,4.42,.03,8.74,4.57,8.72,9.18-.02,4.97-4.29,9.08-9.49,9.12Zm-26.36-.65c1.84,.11,3.72,.46,5.56,.29,2.8-.26,4.1,1.46,5.97,3.91-4.37-.3-8.11-.55-11.76-.8,.1-1.38,.16-2.34,.24-3.4Zm31.65-19.74c-3.01,.25-5.6,.47-8.29,.7-.39-.78-.75-1.51-1.18-2.38,3.34-1.07,6.43-2.1,9.47,1.68Zm-11.45-9.63c1.78,.08,3.85-.28,3.85,2.24,0,.75-1.3,1.49-2.12,2.37-.72-1.92-1.19-3.19-1.73-4.61Zm-12.42,8.17l.6-.53c1.03,.63,2.07,1.23,3.05,1.93,.08,.06-.31,.79-.48,1.2-.65-.37-1.29-.74-1.94-1.11-.14,.25-.36,.63-.9,1.59-.16-1.48-.24-2.28-.33-3.08Zm9.94-2.87c-3.1,2.74-3.61,2.8-7.16,.87,2.37-.29,4.66-.57,7.16-.87Zm28.5,25.75c-1.35,2.53-3.11,1.66-4.88,1.22,1.06-2.94,3.03-1.12,4.88-1.22Z"
              fill="#fff"/>
        <path d="M262.73,106.23c-.04,2.82,1.84,4.9,4.49,4.95,2.68,.06,4.71-1.96,4.74-4.7,.03-2.81-1.87-4.91-4.49-4.97-2.68-.05-4.69,1.94-4.73,4.72Zm3.44-3.11c1.45,2.27,1.25,4.31,.13,6.45-3-1.81-3.07-4.3-.13-6.45Zm2.79,6.61c-.18-.11-.36-.23-.54-.34v-6.1c.2-.1,.39-.21,.59-.31,.56,1.14,1.56,2.28,1.56,3.41,0,1.12-1.03,2.23-1.61,3.34Z"
              fill="#fff"/>
        <path d="M69.06,89.41c6.33-2.8,12.67-5.61,19-8.41-7.21,.82-13.73,3.19-19,8.41Z" fill="#fff"/>
        <path d="M85.98,75.39c-2.06,.69-4.11,1.37-6.68,2.23,2.24,1.29,5.73,.23,6.93-1.48-.08-.25-.17-.5-.25-.75Z"
              fill="#fff"/>
        <path d="M82.72,86.88c-1.87-.79-5.24,.2-5.41,1.15-.04,.24,.8,.94,1.01,.86,1.33-.5,2.59-1.16,4.4-2.01Z"
              fill="#fff"/>
        <path d="M268.03,57.89c4.21-.07,6.58-2.16,6.64-5.89,.05-3-3.15-6.04-6.34-6.02-3.79,.03-6,2.75-6,7.39,0,2.65,2.42,4.57,5.7,4.51Zm-.19-1.01c-2.39,.02-4.45-1.58-4.48-3.51-.07-3.72,1.83-6.22,4.81-6.35,2.48-.1,5.41,2.52,5.45,4.88,.05,3.12-2.06,4.94-5.78,4.98Z"
              fill="#fff"/>
        <path d="M277.4,50.18c-.04,3.24,2.58,5.84,5.83,5.8,2.63-.03,4.6-2.23,4.65-5.2,.06-3.39-2.21-5.76-5.48-5.74-2.88,.02-4.97,2.16-5,5.13Zm5.02-4.11c2.56,0,4.48,2.02,4.45,4.69-.03,2.43-1.67,4.26-3.76,4.19-2.54-.08-4.64-2.14-4.69-4.61-.05-2.39,1.71-4.28,4-4.28Z"
              fill="#fff"/>
        <path d="M277.06,56.13l2.68,1.24-.72,1.13c-1.23-.07-2.47-.15-4.24-.26,1.64,1.52,3.02,1.94,4.53,1.15,.49-.26,1.09-1.41,.92-1.64-.66-.92-1.6-1.64-2.44-2.43-.25,.27-.49,.53-.74,.8Z"
              fill="#fff"/>
        <path d="M206.78,70.64c2.66,.27,5.17-.84,7.25-2.94,2.37-2.39,1.85-6.42-1.08-7.74-.88-.4-2.12-.34-3.11-.12-4.32,.98-8.38,.68-12.08-1.97-1.58-1.13-3.24-1.67-4.97-.51-1.42,.95-2.19,4.1-1.3,5.81,.7,1.34,1.63,2.78,2.84,3.6,3.6,2.45,7.62,3.92,12.44,3.86Z"
              fill="#fff"/>
        <path d="M207.74,52.76c-.29,1.31-.44,2.67-.91,3.92-.28,.72-1.06,1.25-1.62,1.87-.2-.77-.55-1.53-.56-2.3-.02-.97,.22-1.95,.34-2.92-.21-.03-.42-.06-.64-.08-.15,1.33-.45,2.67-.4,4,.03,.69,.69,1.36,1.06,2.04,.8-.48,2.04-.79,2.3-1.48,.59-1.54,.7-3.27,1.01-4.92-.19-.04-.39-.08-.58-.12Z"
              fill="#fff"/>
        <path d="M208.02,32.04c2.98,1.41,5.95,2.8,8.69,4.1-1.52-2.25-5.34-4.1-8.69-4.1Z" fill="#fff"/>
        <path d="M270.99,166.52c0,.06,.01,.13,.02,.19,0,0-.02-.19-.02-.19Z" fill="#fff"/>
        <path d="M272.55,165.54c-.02,.14-.04,.28-.07,.53,0-.24,0-.38,0-.53,0,0,.07,0,.07,0Z" fill="#fff"/>
        <path d="M272.35,168.22c.14-.22,.29-.45,.43-.67-.12,.23-.24,.45-.36,.68,0,0-.07,0-.07,0Z" fill="#fff"/>
        <path d="M270.29,164.98c.2-.1,.4-.19,.6-.29,0,0,.02,.06,.02,.06-.19,.09-.37,.19-.56,.28l-.06-.06Z"
              fill="#fff"/>
        <path d="M273.78,166.89c-.2,.09-.39,.18-.59,.27,.18-.1,.35-.21,.53-.31l.06,.04Z" fill="#fff"/>
        <path d="M273.75,167.62c-.19-.02-.38-.03-.57-.05,.11,.19,.22,.38,.33,.58,0,0-.09-.04-.09-.04,.09-.18,.18-.36,.27-.55l.06,.07Z"
              fill="#fff"/>
        <path d="M273.25,167.63c0-.18,0-.37,0-.55-.18,.18-.36,.36-.54,.54,.18,0,.37,0,.55,0Z" fill="#fff"/>
    </g>
</svg>